<svg xmlns="http://www.w3.org/2000/svg" width="26" height="26" stroke="#000" stroke-linecap="round" stroke-linejoin="round" fill="#fff" fill-rule="evenodd" stroke-width=".7901"><path d="M7.151 15.9082c0-1.4487 1.0954-2.6155 2.4564-2.6155s2.4569 1.1668 2.4569 2.6155v6.4383c0 1.449-1.0958 2.6157-2.4569 2.6157S7.151 23.7955 7.151 22.3465z" stroke="#e01e5a" fill="#e01e5a"/><path d="M15.908 18.206c-1.4485 0-2.6153-1.0958-2.6153-2.4569s1.1668-2.4564 2.6153-2.4564h6.4385c1.449 0 2.6157 1.0954 2.6157 2.4564s-1.1667 2.4569-2.6157 2.4569z" stroke="#ecb22d" fill="#ecb22d"/><path d="M13.2927 3.0105c0-1.4486 1.0954-2.6154 2.4564-2.6154s2.4569 1.1668 2.4569 2.6154v6.4384c0 1.449-1.0958 2.6157-2.4569 2.6157s-2.4564-1.1667-2.4564-2.6157z" stroke="#2fb67c" fill="#2fb67c"/><path d="M3.0104 12.0643c-1.4485 0-2.6153-1.0958-2.6153-2.4569S1.5619 7.151 3.0104 7.151h6.4385c1.449 0 2.6157 1.0954 2.6157 2.4564s-1.1667 2.4569-2.6157 2.4569z" stroke="#36c5f1" fill="#36c5f1"/><g stroke-linejoin="miter"><path d="M13.2927 22.505c-.0015.6526.2568 1.2779.7183 1.7394a2.453 2.453 0 0 0 4.1951-1.7394c.0013-.6513-.2573-1.2775-.7176-1.7381s-1.0868-.7198-1.7394-.7183h-2.4564z" stroke="#ecb22d" fill="#ecb22d"/><path d="M22.505 12.0643h-2.4564V9.6074A2.451 2.451 0 0 1 22.505 7.151c1.3611 0 2.4569 1.0954 2.4569 2.4564a2.452 2.452 0 0 1-2.4569 2.4569z" stroke="#2fb67c" fill="#2fb67c"/><path d="M2.8515 13.2927h2.457v2.4564a2.452 2.452 0 0 1-2.457 2.4569 2.453 2.453 0 0 1-1.7381-.7176c-.4615-.4615-.7198-1.0868-.7183-1.7393a2.451 2.451 0 0 1 2.4564-2.4564z" stroke="#e01e5a" fill="#e01e5a"/><path d="M12.0644 2.8515v2.457h-2.457a2.453 2.453 0 0 1-1.7381-.7176c-.4615-.4615-.7198-1.0868-.7183-1.7394A2.451 2.451 0 0 1 9.6074.3951c.6526-.0015 1.2779.2568 1.7394.7183s.7189 1.0868.7176 1.7381z" stroke="#36c5f1" fill="#36c5f1"/></g></svg>